
<svg width="120px" height="115px" viewBox="0 0 120 115" version="1.1" xmlns="http://www.w3.org/2000/svg" xmlns:xlink="http://www.w3.org/1999/xlink">
    <g id="Semanticbot-v1" stroke="none" stroke-width="1" fill="none" fill-rule="evenodd">
        <g id="01.-SemanticChatbot-default" transform="translate(-841.000000, -454.000000)" fill="#CBD2DB" fill-rule="nonzero">
            <g id="noun_Chatbot_933503" transform="translate(840.000000, 454.000000)">
                <g id="Group" transform="translate(0.784914, 0.263630)">
                    <path d="M48.372,114.592 C48.372,105.984 41.3693333,98.9813333 32.7613333,98.9813333 L22.6306667,98.9813333 C14.0226667,98.9813333 7.02,105.984 7.02,114.592 L11.02,114.592 L11.02,114.592 C11.02,108.189333 16.228,102.981333 22.6306667,102.981333 L32.7613333,102.981333 C39.1626667,102.981333 44.3706667,108.189333 44.372,114.592 L44.372,114.592 L48.372,114.592 Z" id="Path"></path>
                    <path d="M40.88,97.248 C44.188,97.248 46.88,94.556 46.88,91.248 L46.88,78.748 C46.88,75.44 44.188,72.748 40.88,72.748 L13.692,72.748 C10.384,72.748 7.692,75.44 7.692,78.748 L7.692,91.248 C7.692,94.556 10.384,97.248 13.692,97.248 L40.88,97.248 Z M11.692,91.248 L11.692,78.748 C11.692,77.6453333 12.5893333,76.748 13.692,76.748 L40.88,76.748 C41.9826667,76.748 42.88,77.6453333 42.88,78.748 L42.88,91.248 C42.88,92.3506667 41.9826667,93.248 40.88,93.248 L13.692,93.248 C12.588,93.248 11.692,92.3506667 11.692,91.248 Z" id="Shape"></path>
                    <rect id="Rectangle" x="18.2506667" y="80.2773333" width="4" height="9.44133333"></rect>
                    <rect id="Rectangle" x="32.9346667" y="80.2773333" width="4" height="9.44133333"></rect>
                    <rect id="Rectangle" x="1.872" y="80.4666667" width="4" height="9.06266667"></rect>
                    <rect id="Rectangle" x="49.5213333" y="80.4666667" width="4" height="9.06266667"></rect>
                    <path d="M0.330666667,63.424 C0.330666667,64.7426667 0.949333333,66.0386667 2.084,66.7106667 C2.67066667,67.0573333 3.31333333,67.2253333 3.94533333,67.2253333 C4.888,67.2253333 5.81066667,66.8546667 6.49733333,66.1586667 L19.5106667,53.1573333 L41.8653333,53.1573333 C43.0426667,53.1573333 43.9573333,52.132 43.8226667,50.9626667 L43.8133333,50.8853333 C43.7013333,49.896 42.8546667,49.1573333 41.8586667,49.1573333 L19.3453333,49.1573333 C18.3906667,49.1573333 17.476,49.536 16.8,50.2106667 L4.33066667,62.6693333 L4.33066667,20.812 C4.33066667,11.568 11.824,4.07466667 21.068,4.07466667 L48.204,4.07466667 C56.0986667,4.07466667 62.7173333,9.57466667 64.468,16.9413333 C64.68,17.8333333 65.488,18.4546667 66.4053333,18.4546667 C67.68,18.4546667 68.668,17.2733333 68.3733333,16.0333333 C66.2093333,6.896 57.992,0.076 48.2026667,0.076 L21.068,0.076 C9.61466667,0.076 0.330666667,9.36 0.330666667,20.8133333 L0.330666667,63.424 Z" id="Path"></path>
                    <path d="M98.9146667,77.172 L100.484,77.172 L104.733333,81.4213333 L113.493333,90.1826667 C114.188,90.8773333 115.108,91.2453333 116.048,91.2453333 C116.514667,91.2453333 116.986667,91.1546667 117.436,90.968 C118.793333,90.4053333 119.669333,89.0946667 119.669333,87.6253333 L119.669333,44.8346667 C119.669333,33.8773333 111.121333,24.9 100.346667,24.1653333 C99.876,24.1333333 99.408,24.0933333 98.9293333,24.0933333 L71.7906667,24.0933333 C60.3546667,24.0933333 51.0506667,33.3986667 51.0506667,44.8346667 L51.0506667,56.4306667 C51.0506667,60.0853333 52.0093333,63.5173333 53.676,66.5026667 C57.224,72.8586667 64.0093333,77.1706667 71.7906667,77.1706667 L98.9146667,77.1706667 L98.9146667,77.172 Z M55.0506667,56.432 L55.0506667,44.836 C55.0506667,35.6053333 62.56,28.0946667 71.7906667,28.0946667 L98.9293333,28.0946667 C108.16,28.0946667 115.669333,35.6053333 115.669333,44.836 L115.669333,86.7026667 L103.198667,74.2306667 C102.516,73.548 101.608,73.172 100.64,73.172 L71.7906667,73.172 C62.56,73.172 55.0506667,65.6626667 55.0506667,56.432 Z" id="Shape"></path>
                </g>
            </g>
        </g>
    </g>
</svg>