<svg width="135px" height="20px" viewBox="0 0 135 20" version="1.1" xmlns="http://www.w3.org/2000/svg" xmlns:xlink="http://www.w3.org/1999/xlink">
    <g id="Semanticbot-v1" stroke="none" stroke-width="1" fill="none" fill-rule="evenodd">
        <g id="01.-SemanticChatbot-default" transform="translate(-39.000000, -27.000000)" fill="#000000">
            <g id="header" transform="translate(39.000000, 26.000000)">
                <g id="logo">
                    <path d="M6.43461538,12.0576923 C6.51923077,11.8365385 6.56346154,11.5961538 6.56346154,11.3423077 C6.56346154,11.0865385 6.51923077,10.8461538 6.43076923,10.6211538 C6.34230769,10.3961538 6.21923077,10.2 6.05961538,10.0326923 C5.90192308,9.86538462 5.71538462,9.73269231 5.50192308,9.63461538 C5.28846154,9.53846154 5.05769231,9.48846154 4.80769231,9.48846154 C4.55192308,9.48846154 4.31730769,9.53653846 4.10384615,9.63076923 C3.89038462,9.725 3.70961538,9.85576923 3.55961538,10.0230769 C3.40961538,10.1903846 3.29230769,10.3846154 3.20769231,10.6076923 C3.12115385,10.8288462 3.07884615,11.0692308 3.07884615,11.3230769 C3.07884615,11.5788462 3.12307692,11.8192308 3.21153846,12.0442308 C3.3,12.2692308 3.42115385,12.4634615 3.57692308,12.6288462 C3.73269231,12.7942308 3.91730769,12.925 4.13076923,13.0211538 C4.34423077,13.1192308 4.57692308,13.1673077 4.825,13.1673077 C5.08076923,13.1673077 5.31538462,13.1192308 5.52884615,13.025 C5.74230769,12.9307692 5.925,12.8019231 6.07692308,12.6365385 C6.23076923,12.4711538 6.35,12.2788462 6.43461538,12.0576923 L6.43461538,12.0576923 Z M11.4288462,11.9211538 C11.5038462,11.7326923 11.5423077,11.5192308 11.5423077,11.2807692 C11.5423077,11.0423077 11.5038462,10.8288462 11.4288462,10.6403846 C11.3519231,10.4519231 11.25,10.2884615 11.1230769,10.1519231 C10.9961538,10.0153846 10.8461538,9.90961538 10.6769231,9.83653846 C10.5057692,9.76346154 10.3307692,9.72692308 10.1480769,9.72692308 C9.95961538,9.72692308 9.78269231,9.76153846 9.61538462,9.83269231 C9.44807692,9.90192308 9.3,10.0057692 9.17307692,10.1384615 C9.04615385,10.2730769 8.94423077,10.4365385 8.87115385,10.6269231 C8.79807692,10.8192308 8.76153846,11.0365385 8.76153846,11.2807692 C8.76153846,11.5192308 8.79807692,11.7326923 8.87115385,11.925 C8.94423077,12.1173077 9.04423077,12.2807692 9.17307692,12.4134615 C9.3,12.5480769 9.44807692,12.6519231 9.61538462,12.725 C9.78269231,12.7980769 9.95961538,12.8346154 10.1480769,12.8346154 C10.3307692,12.8346154 10.5057692,12.7980769 10.6769231,12.725 C10.8461538,12.6519231 10.9961538,12.5461538 11.1230769,12.4096154 C11.25,12.2730769 11.3519231,12.1096154 11.4288462,11.9211538 L11.4288462,11.9211538 Z M15.0846154,10.1038462 L15.0846154,10.1230769 C15.0846154,10.3153846 15.3673077,10.4076923 15.8884615,10.5615385 C16.8673077,10.8365385 17.6442308,11.1730769 17.6442308,12.1346154 L17.6442308,12.1538462 C17.6442308,13.2423077 16.8307692,13.8076923 15.625,13.8076923 C14.7942308,13.8076923 13.9711538,13.5692308 13.2846154,13.0769231 L13.9346154,12.025 C14.5019231,12.4 15.1230769,12.5923077 15.6346154,12.5923077 C15.9365385,12.5923077 16.0730769,12.5 16.0730769,12.3269231 L16.0730769,12.3076923 C16.0730769,12.1153846 15.8,12.0346154 15.2788462,11.8884615 C14.3,11.6326923 13.5230769,11.3038462 13.5230769,10.3057692 L13.5230769,10.2884615 C13.5230769,9.23653846 14.3653846,8.65192308 15.5076923,8.65192308 C16.2307692,8.65192308 16.9788462,8.86153846 17.5461538,9.22692308 L16.9519231,10.3230769 C16.4403846,10.0403846 15.8826923,9.86538462 15.4884615,9.86538462 C15.2230769,9.86538462 15.0846154,9.96538462 15.0846154,10.1038462 L15.0846154,10.1038462 Z M12.6403846,13.6961538 L11.525,13.6961538 L11.525,12.8903846 C11.3480769,13.1403846 11.1288462,13.3538462 10.8634615,13.5307692 C10.5980769,13.7076923 10.2711538,13.7961538 9.88269231,13.7961538 C9.59615385,13.7961538 9.31923077,13.7423077 9.05192308,13.6326923 C8.78461538,13.5230769 8.54615385,13.3596154 8.34038462,13.1442308 C8.13461538,12.9288462 7.96730769,12.6634615 7.83846154,12.3519231 C7.71153846,12.0403846 7.64615385,11.6846154 7.64615385,11.2826923 C7.64615385,10.8807692 7.70769231,10.5230769 7.83269231,10.2134615 C7.95769231,9.90192308 8.12307692,9.63846154 8.33076923,9.42307692 C8.53846154,9.20576923 8.77692308,9.04423077 9.04807692,8.93461538 C9.31923077,8.825 9.59807692,8.76923077 9.88269231,8.76923077 C10.2769231,8.76923077 10.6057692,8.85384615 10.8673077,9.025 C11.1288462,9.19615385 11.3480769,9.39423077 11.525,9.61923077 L11.525,7.01923077 L12.6403846,7.01923077 L12.6403846,13.6961538 Z M7.28653846,11.3269231 C7.28653846,11.6615385 7.22307692,11.9807692 7.09807692,12.2826923 C6.97307692,12.5846154 6.8,12.8480769 6.58076923,13.0730769 C6.36153846,13.2980769 6.09807692,13.4769231 5.79423077,13.6076923 C5.48846154,13.7384615 5.15961538,13.8038462 4.80576923,13.8038462 C4.45192308,13.8038462 4.125,13.7384615 3.82692308,13.6076923 C3.52884615,13.4769231 3.26923077,13.3 3.05,13.0769231 C2.83076923,12.8538462 2.65961538,12.5942308 2.53846154,12.2942308 C2.41538462,11.9961538 2.35576923,11.6788462 2.35576923,11.3423077 C2.35576923,11.0076923 2.41730769,10.6884615 2.53846154,10.3865385 C2.65961538,10.0846154 2.83076923,9.82115385 3.05,9.59615385 C3.26923077,9.37115385 3.53076923,9.19230769 3.83269231,9.06153846 C4.13461538,8.93076923 4.46538462,8.86538462 4.825,8.86538462 C5.17884615,8.86538462 5.50576923,8.93076923 5.80769231,9.06153846 C6.10961538,9.19230769 6.36923077,9.36923077 6.59038462,9.59230769 C6.80961538,9.81538462 6.98076923,10.075 7.10192308,10.375 C7.225,10.675 7.28653846,10.9923077 7.28653846,11.3269231 L7.28653846,11.3269231 Z M20,11 C20,5.47692308 15.5230769,1 10,1 C4.47692308,1 0,5.47692308 0,11 C0,16.5230769 4.47692308,21 10,21 C15.5230769,21 20,16.5230769 20,11 L20,11 Z" id="Shape" fill-rule="nonzero"></path>
                    <text id="semanticbot" font-family="Helvetica" font-size="18" font-weight="normal">
                        <tspan x="24" y="18">semanticbot</tspan>
                    </text>
                </g>
            </g>
        </g>
    </g>
</svg>